<svg id="Calque_1" data-name="Calque 1" xmlns="http://www.w3.org/2000/svg" viewBox="0 0 446.63 361.72"><defs><style>.cls-1{fill:#e3e4e3;}.cls-2{font-size:30.66px;fill:#f5a01c;font-family:Oswald-ExtraLight, Oswald;font-weight:200;}</style></defs><path class="cls-1" d="M105.82,231.1H86.42L74.15,289.72,62.68,231.1H42.6L41,324H54.87l1.26-63.45L68.53,324H80.35l11.81-63,1.5,63h13.77Z" transform="translate(-41 -22.7)"/><path class="cls-1" d="M151.48,231.1l-9.3,32.69-10-32.69H114.42l18.13,56.11V324h18.24V287.21l17.89-56.11Z" transform="translate(-41 -22.7)"/><path class="cls-1" d="M219.68,286.23a53.32,53.32,0,0,0-10-11.53l-9.41-8.27a39.53,39.53,0,0,1-6.14-6.59,13.67,13.67,0,0,1-2.24-8.09,9.84,9.84,0,0,1,1.6-5.44,5.49,5.49,0,0,1,4.94-2.48,5.68,5.68,0,0,1,4.64,1.84,10.31,10.31,0,0,1,2.07,5.05,72.33,72.33,0,0,1,.75,7.46L222,255.77a57.29,57.29,0,0,0-1.2-9,25.2,25.2,0,0,0-3.44-8.38,17.55,17.55,0,0,0-6.94-6.14A25.11,25.11,0,0,0,199,230q-11.7,0-18.41,6.13t-6.71,17.61a26.14,26.14,0,0,0,3.26,13.54,39,39,0,0,0,8.45,9.87l9.63,8.38a46.22,46.22,0,0,1,7.39,8,16.45,16.45,0,0,1,2.82,9.8,10.37,10.37,0,0,1-1.33,5.29c-.87,1.52-2.54,2.29-5,2.29a7,7,0,0,1-5-1.9,11.59,11.59,0,0,1-3-5.74,46.43,46.43,0,0,1-1.2-9.58l-16.3,2.76q.47,9.87,3.38,16.23a20.07,20.07,0,0,0,8.67,9.53q5.73,3.15,14.34,3.15a25.42,25.42,0,0,0,12.56-3,21.22,21.22,0,0,0,8.31-8.26,23.49,23.49,0,0,0,3-11.82Q223.87,292.72,219.68,286.23Z" transform="translate(-41 -22.7)"/><path class="cls-1" d="M228.23,231.1v14.11h14.33V324h19.05V245.21h14.11V231.1Z" transform="translate(-41 -22.7)"/><path class="cls-1" d="M303,311.18V282h16.64v-13.2H303V244.18h21.56V231.1H284.1V324h40.72V311.18Z" transform="translate(-41 -22.7)"/><path class="cls-1" d="M384.89,240.74a18.84,18.84,0,0,0-10.33-7.52,54,54,0,0,0-16.12-2.12H334.35V324h18.92v-42.1h6.66L370.6,324h11c-7.13-9.42-10.54-21.32-13.12-33,1.67,4.7,6.57,7.62,11.47,8.51a22.88,22.88,0,0,0,3.19.35l-6-21.22a16.92,16.92,0,0,0,6.93-5.21,19.71,19.71,0,0,0,3.45-7.69,48.11,48.11,0,0,0,1-10.15Q388.5,246.14,384.89,240.74Zm-15.15,23.92a8.19,8.19,0,0,1-3.73,4.53,14.64,14.64,0,0,1-7.23,1.49h-5.51V244h6.43q6.42,0,8.78,3.39t2.35,9.81A22.36,22.36,0,0,1,369.74,264.66Z" transform="translate(-41 -22.7)"/><path class="cls-1" d="M401.12,231.1v67.66a135.87,135.87,0,0,1,18.82.32v-68Z" transform="translate(-41 -22.7)"/><path class="cls-1" d="M485,243.9a20.1,20.1,0,0,0-8.6-10.33q-6-3.62-16.36-3.61t-16.17,3.56a19.82,19.82,0,0,0-8.54,10.31,45.89,45.89,0,0,0-2.58,16.3v34.64a59.3,59.3,0,0,0,.33,6.55,19.17,19.17,0,0,1,9,5.62,18.4,18.4,0,0,1,.64-14.51c1.18,8,5.6,15.33,11.38,21a65.6,65.6,0,0,0,15.34,10.89,23.42,23.42,0,0,0,6.93-2.71,20.33,20.33,0,0,0,8.6-10.5,46.24,46.24,0,0,0,2.59-16.35V260.13A45.24,45.24,0,0,0,485,243.9Zm-16.69,55.58a30.24,30.24,0,0,1-.57,6,8.33,8.33,0,0,1-2.3,4.47c-1.15,1.12-2.94,1.67-5.4,1.67s-4.12-.55-5.26-1.67a8,8,0,0,1-2.25-4.47,33.69,33.69,0,0,1-.51-6V255.54a28.81,28.81,0,0,1,.57-6,8.26,8.26,0,0,1,2.3-4.41,7.15,7.15,0,0,1,5.15-1.67c2.46,0,4.25.56,5.4,1.67a8.33,8.33,0,0,1,2.3,4.41,29.52,29.52,0,0,1,.57,6Z" transform="translate(-41 -22.7)"/><path class="cls-1" d="M371,127.64c.59-1.78,3.23-2.69,7.06-2.75l-22.88-35a12.1,12.1,0,0,1-1.36-10.43l13.56-40.85a12.1,12.1,0,0,0-15-15.38L311.78,35.55a12.2,12.2,0,0,1-3.17.51l-44.37,1.27q-.35,0-.69,0l-44.38-1.27a12.2,12.2,0,0,1-3.17-.51L175.45,23.23a12.1,12.1,0,0,0-15,15.38L174,79.46a12.1,12.1,0,0,1-1.36,10.43l-22.09,33.8c5.51-1.33,9.69-1.06,10.76,1.08,1.52,3-3.69,8.8-12,13.77a12,12,0,0,0,4.63,4.27l36.93,19.27,18.69-16.49a19.6,19.6,0,1,1,6,5.76l-16.79,14.87,50.14,26.16a4.32,4.32,0,0,1-.26-1.46c0-4.39,6.81-7.95,15.22-7.95s15.23,3.56,15.23,7.95a4.33,4.33,0,0,1-.27,1.46L329,166.22,312.2,151.35a19.59,19.59,0,1,1,6-5.76l18.69,16.49,36.93-19.27a12.06,12.06,0,0,0,5.48-5.89C373.55,133.7,370.12,130.14,371,127.64Z" transform="translate(-41 -22.7)"/><circle class="cls-1" cx="184.77" cy="111.92" r="10.99"/><circle class="cls-1" cx="302.01" cy="134.62" r="10.99" transform="translate(-58.66 27.41) rotate(-9.22)"/><text class="cls-2" transform="translate(147.95 350.68)">ESCAPE GAME</text></svg>