<svg id="Calque_1" data-name="Calque 1" xmlns="http://www.w3.org/2000/svg" viewBox="0 0 415.3 89.55"><defs><style>.cls-1{fill:#18223b;}</style></defs><path class="cls-1" d="M178.69,199.35c.31-.93,1.71-1.42,3.73-1.45l-12.08-18.47a6.39,6.39,0,0,1-.71-5.51l7.15-21.56a6.38,6.38,0,0,0-7.91-8.12l-21.41,6.51a6.7,6.7,0,0,1-1.67.27l-23.42.67H122L98.59,151a6.85,6.85,0,0,1-1.68-.27l-21.4-6.51a6.39,6.39,0,0,0-7.92,8.12l7.16,21.56a6.39,6.39,0,0,1-.72,5.51L62.37,197.27c2.91-.7,5.12-.56,5.68.57.8,1.59-2,4.64-6.35,7.27a6.35,6.35,0,0,0,2.45,2.25l19.49,10.17,9.86-8.7a10.35,10.35,0,1,1,3.19,3l-8.86,7.85,26.46,13.8a2.28,2.28,0,0,1-.14-.77c0-2.32,3.6-4.19,8-4.19s8,1.87,8,4.19a2.54,2.54,0,0,1-.13.77l26.46-13.8-8.86-7.85a10.38,10.38,0,1,1,3.18-3l9.87,8.7,19.49-10.17a6.35,6.35,0,0,0,2.89-3.11C180.07,202.55,178.25,200.67,178.69,199.35Z" transform="translate(-61.7 -143.97)"/><circle class="cls-1" cx="40.37" cy="59.07" r="5.8"/><circle class="cls-1" cx="142.31" cy="203.04" r="5.8" transform="matrix(0.99, -0.16, 0.16, 0.99, -92.39, -118.55)"/><path class="cls-1" d="M256.06,169H244.84l-7.11,33.93L231.1,169H219.48l-.93,53.78h8l.73-36.71,7.17,36.71h6.84l6.84-36.45.86,36.45h8Z" transform="translate(-61.7 -143.97)"/><path class="cls-1" d="M282.48,169l-5.38,18.92L271.33,169H261l10.49,32.47v21.31h10.55V201.47L292.44,169Z" transform="translate(-61.7 -143.97)"/><path class="cls-1" d="M322,200.91a30.88,30.88,0,0,0-5.81-6.68l-5.44-4.78a23,23,0,0,1-3.56-3.81,8,8,0,0,1-1.29-4.69,5.67,5.67,0,0,1,.93-3.15,3.18,3.18,0,0,1,2.86-1.43,3.3,3.3,0,0,1,2.68,1.07,5.88,5.88,0,0,1,1.2,2.92,42.05,42.05,0,0,1,.43,4.31l9.36-1.39a32.4,32.4,0,0,0-.7-5.21,14.45,14.45,0,0,0-2-4.85,10.14,10.14,0,0,0-4-3.55,14.65,14.65,0,0,0-6.65-1.33q-6.76,0-10.65,3.55t-3.88,10.19a15.15,15.15,0,0,0,1.89,7.84,22.69,22.69,0,0,0,4.88,5.71l5.58,4.85a26.84,26.84,0,0,1,4.28,4.61,9.56,9.56,0,0,1,1.62,5.67,6,6,0,0,1-.76,3.06,3.05,3.05,0,0,1-2.89,1.33,4.07,4.07,0,0,1-2.89-1.1,6.81,6.81,0,0,1-1.72-3.32,27.26,27.26,0,0,1-.7-5.55l-9.42,1.6a25.44,25.44,0,0,0,1.95,9.39,11.61,11.61,0,0,0,5,5.52,17.13,17.13,0,0,0,8.3,1.82,14.73,14.73,0,0,0,7.26-1.72,12.31,12.31,0,0,0,4.81-4.79,13.53,13.53,0,0,0,1.73-6.84A16.74,16.74,0,0,0,322,200.91Z" transform="translate(-61.7 -143.97)"/><path class="cls-1" d="M326.9,169v8.17h8.29v45.61h11V177.17h8.17V169Z" transform="translate(-61.7 -143.97)"/><path class="cls-1" d="M370.18,215.34V198.48h9.63v-7.64h-9.63V176.57h12.48V169H359.23v53.78h23.56v-7.44Z" transform="translate(-61.7 -143.97)"/><path class="cls-1" d="M417.55,174.58a10.89,10.89,0,0,0-6-4.35,31.05,31.05,0,0,0-9.32-1.23H388.31v53.78h10.95V198.42h3.85l6.17,24.36h6.38c-4.13-5.45-6.1-12.34-7.6-19.07,1,2.72,3.81,4.41,6.64,4.92a12.76,12.76,0,0,0,1.85.2l-3.48-12.28a9.69,9.69,0,0,0,4-3,11.31,11.31,0,0,0,2-4.45,27.86,27.86,0,0,0,.56-5.87Q419.64,177.7,417.55,174.58Zm-8.76,13.84a4.79,4.79,0,0,1-2.17,2.63,8.54,8.54,0,0,1-4.18.86h-3.18V176.44H403c2.48,0,4.17.65,5.09,2a10,10,0,0,1,1.35,5.68A13.25,13.25,0,0,1,408.79,188.42Z" transform="translate(-61.7 -143.97)"/><path class="cls-1" d="M426.94,169v39.16a79.16,79.16,0,0,1,10.89.18V169Z" transform="translate(-61.7 -143.97)"/><path class="cls-1" d="M475.5,176.41a11.63,11.63,0,0,0-5-6c-2.33-1.39-5.48-2.09-9.47-2.09s-7.06.69-9.36,2.06a11.5,11.5,0,0,0-4.94,6,26.7,26.7,0,0,0-1.49,9.43v20a35.08,35.08,0,0,0,.19,3.79,11,11,0,0,1,5.22,3.25,10.67,10.67,0,0,1,.38-8.4,21.86,21.86,0,0,0,6.58,12.16,37.55,37.55,0,0,0,8.88,6.3,13.42,13.42,0,0,0,4-1.56,11.74,11.74,0,0,0,5-6.08,26.67,26.67,0,0,0,1.5-9.46v-20A26.08,26.08,0,0,0,475.5,176.41Zm-9.65,32.16a18.3,18.3,0,0,1-.33,3.49,4.94,4.94,0,0,1-1.33,2.59,4.39,4.39,0,0,1-3.13,1,4.2,4.2,0,0,1-3-1,4.64,4.64,0,0,1-1.3-2.59,19.23,19.23,0,0,1-.3-3.49V183.15a17.15,17.15,0,0,1,.33-3.46,4.75,4.75,0,0,1,1.33-2.55,4.14,4.14,0,0,1,3-1,4.39,4.39,0,0,1,3.13,1,4.89,4.89,0,0,1,1.33,2.55,17.91,17.91,0,0,1,.33,3.46Z" transform="translate(-61.7 -143.97)"/></svg>