<svg id="Calque_1" data-name="Calque 1" xmlns="http://www.w3.org/2000/svg" viewBox="0 0 46 33.93"><defs><style>.cls-1{fill:#11203d;}</style></defs><path class="cls-1" d="M45.32,28.9c.12-.36.65-.54,1.41-.56l-4.57-7a2.45,2.45,0,0,1-.27-2.09l2.71-8.17A2.42,2.42,0,0,0,41.6,8l-8.11,2.46a2.24,2.24,0,0,1-.63.1L24,10.84h-.13L15,10.58a2.3,2.3,0,0,1-.63-.1L6.23,8a2.42,2.42,0,0,0-3,3.07l2.71,8.17a2.38,2.38,0,0,1-.27,2.09L1.25,28.11c1.11-.27,1.94-.22,2.16.21.3.61-.74,1.76-2.41,2.76a2.47,2.47,0,0,0,.93.85l7.38,3.85,3.74-3.29a3.92,3.92,0,1,1,3.24,1.72,4,4,0,0,1-2-.57l-3.35,3,10,5.23a.93.93,0,0,1-.05-.29c0-.88,1.36-1.59,3.05-1.59s3,.71,3,1.59a.93.93,0,0,1-.05.29l10-5.23-3.35-3a3.92,3.92,0,0,1-6-3.35,3.92,3.92,0,1,1,7.16,2.2l3.74,3.29,7.38-3.85A2.37,2.37,0,0,0,47,30.75C45.84,30.11,45.16,29.4,45.32,28.9Z" transform="translate(-1 -7.91)"/><circle class="cls-1" cx="15.29" cy="22.38" r="2.2"/><circle class="cls-1" cx="30.54" cy="22.38" r="2.2"/></svg>